<?xml version="1.0" encoding="UTF-8" standalone="no" ?>
<!DOCTYPE svg PUBLIC "-//W3C//DTD SVG 1.1//EN" "http://www.w3.org/Graphics/SVG/1.1/DTD/svg11.dtd">
<svg xmlns="http://www.w3.org/2000/svg" xmlns:xlink="http://www.w3.org/1999/xlink" version="1.1" width="1080" height="1080" viewBox="0 0 1080 1080" xml:space="preserve">
<desc>Created with Fabric.js 5.2.4</desc>
<defs>
</defs>
<rect x="0" y="0" width="100%" height="100%" fill="transparent"></rect>
<g transform="matrix(1 0 0 1 540 540)" id="edb7b0f9-0890-416d-a77c-5e1796c15ffd"  >
<rect style="stroke: none; stroke-width: 1; stroke-dasharray: none; stroke-linecap: butt; stroke-dashoffset: 0; stroke-linejoin: miter; stroke-miterlimit: 4; fill: rgb(255,255,255); fill-rule: nonzero; opacity: 1; visibility: hidden;" vector-effect="non-scaling-stroke"  x="-540" y="-540" rx="0" ry="0" width="1080" height="1080" />
</g>
<g transform="matrix(1 0 0 1 540 540)" id="243a2934-b657-4a59-9293-384548cdb3c7"  >
</g>
<g transform="matrix(14.72 0 0 18.82 540 540)" id="2980cc99-3f3d-4eb2-9040-efe576051c82"  >
<path style="stroke: rgb(34,125,81); stroke-width: 0; stroke-dasharray: none; stroke-linecap: butt; stroke-dashoffset: 0; stroke-linejoin: miter; stroke-miterlimit: 4; fill: rgb(34,125,81); fill-rule: nonzero; opacity: 1;" vector-effect="non-scaling-stroke"  transform=" translate(-33.84, 17.57)" d="M 54.11 -35.14 Q 59.9 -35.14 62.71 -30.53 Q 65.52 -25.92 65.52 -19.48 Q 65.52 -13.03 63.86 0 L 63.86 0 L 51.26 0 L 49.68 -16.7 Q 49.25 -21.02 48.53 -22.46 Q 47.81 -23.9 46.08 -23.9 L 46.08 -23.9 Q 41.98 -23.9 41.47 -16.63 L 41.47 -16.63 L 40.25 0 L 27.43 0 L 25.85 -16.7 Q 25.42 -21.02 24.7 -22.46 Q 23.98 -23.9 22.25 -23.9 L 22.25 -23.9 Q 18 -23.9 17.64 -16.63 L 17.64 -16.63 L 16.92 0 L 3.67 0 L 2.16 -34.13 L 18.43 -34.13 L 18.14 -27.29 Q 18.29 -27.58 18.54 -28.12 Q 18.79 -28.66 19.84 -30.02 Q 20.88 -31.39 22.18 -32.4 Q 23.47 -33.41 25.74 -34.27 Q 28.01 -35.14 30.6 -35.14 L 30.6 -35.14 Q 34.78 -35.14 37.4 -32.47 Q 40.03 -29.81 40.82 -26.57 L 40.82 -26.57 Q 41.9 -28.37 42.7 -29.45 Q 43.49 -30.53 45.07 -32.04 L 45.07 -32.04 Q 48.31 -35.14 54.11 -35.14 Z" stroke-linecap="round" />
</g>
<g transform="matrix(NaN NaN NaN NaN 0 0)"  >
<g style=""   >
</g>
</g>
<g transform="matrix(NaN NaN NaN NaN 0 0)"  >
<g style=""   >
</g>
</g>
<g transform="matrix(NaN NaN NaN NaN 0 0)"  >
<g style=""   >
</g>
</g>
</svg>